<svg width="48" height="56" fill="none" xmlns="http://www.w3.org/2000/svg"><path d="M26.52 54.53a5 5 0 0 1-5.04 0l-19-11.083A5 5 0 0 1 0 39.128V5a5 5 0 0 1 5-5h38a5 5 0 0 1 5 5v34.128a5 5 0 0 1-2.48 4.319l-19 11.083Z" fill="#FFC81A"/><path d="M24 16.364A7.636 7.636 0 0 0 16.364 24H10c0-7.732 6.268-14 14-14s14 6.268 14 14-6.268 14-14 14v-6.364a7.636 7.636 0 1 0 0-15.272Z" fill="#fff"/><path d="M17.637 31.637v-6.364H24v6.364h-6.363ZM12.545 31.636v5.091h5.091v-5.09h-5.09ZM12.545 31.636H10v-2.545h2.545v2.545Z" fill="#fff"/></svg>