<svg width="40" height="40" fill="none" xmlns="http://www.w3.org/2000/svg"><circle cx="20" cy="20" r="20" fill="#FF4B33"/><path d="M20 23a3 3 0 1 0 0-6 3 3 0 0 0 0 6Z" fill="#fff"/><path fill-rule="evenodd" clip-rule="evenodd" d="M20 11a1 1 0 0 1 1 1v1.07A7.004 7.004 0 0 1 26.93 19H28a1 1 0 0 1 0 2h-1.07A7.004 7.004 0 0 1 21 26.93V28a1 1 0 0 1-2 0v-1.07A7.004 7.004 0 0 1 13.07 21H12a1 1 0 0 1 0-2h1.07A7.005 7.005 0 0 1 19 13.07V12a1 1 0 0 1 1-1Zm-5 9a5 5 0 1 1 10 0 5 5 0 0 1-10 0Z" fill="#fff"/></svg>