<svg width="24" height="24" fill="none" xmlns="http://www.w3.org/2000/svg"><rect width="24" height="24" rx="5" fill="#141414"/><path d="M12 6.222c1.882 0 2.1.01 2.846.038.69.028 1.06.142 1.305.246.331.132.568.284.814.53.245.245.397.482.53.813.094.246.207.624.245 1.305.038.747.038.964.038 2.846 0 1.882-.01 2.1-.038 2.846-.028.69-.142 1.06-.246 1.305a2.243 2.243 0 0 1-.53.814 2.243 2.243 0 0 1-.813.53c-.246.094-.624.207-1.305.245-.747.038-.964.038-2.846.038-1.882 0-2.1-.01-2.846-.038-.69-.028-1.06-.142-1.305-.246a2.244 2.244 0 0 1-.814-.53 2.243 2.243 0 0 1-.53-.813c-.094-.246-.207-.624-.245-1.305-.038-.747-.038-.964-.038-2.846 0-1.882.01-2.1.038-2.846.028-.69.142-1.06.246-1.305.132-.331.284-.568.53-.814.245-.245.482-.397.813-.53.246-.094.624-.207 1.305-.245.747-.028.964-.038 2.846-.038Zm0-1.267c-1.91 0-2.156.01-2.903.038-.747.038-1.258.151-1.712.33a3.35 3.35 0 0 0-1.248.814 3.47 3.47 0 0 0-.813 1.248c-.17.445-.293.965-.331 1.712-.038.747-.038.993-.038 2.903 0 1.91.01 2.156.038 2.903.038.747.151 1.258.33 1.712.18.463.417.86.814 1.248a3.47 3.47 0 0 0 1.248.813c.445.17.965.293 1.712.331.747.038.993.038 2.903.038 1.91 0 2.156-.01 2.903-.038.747-.038 1.258-.151 1.712-.33a3.35 3.35 0 0 0 1.248-.814c.388-.388.634-.785.813-1.248.17-.445.293-.965.331-1.712.038-.747.038-.993.038-2.903 0-1.91-.01-2.156-.038-2.903-.038-.747-.151-1.258-.33-1.712a3.349 3.349 0 0 0-.814-1.248 3.47 3.47 0 0 0-1.248-.813c-.445-.17-.965-.293-1.712-.331-.747-.028-.993-.038-2.903-.038Z" fill="#fff"/><path d="M12 8.378a3.612 3.612 0 1 0 0 7.224 3.612 3.612 0 0 0 0-7.224Zm0 5.967a2.345 2.345 0 1 1 0-4.69 2.345 2.345 0 0 1 0 4.69ZM15.764 9.078a.842.842 0 1 0 0-1.683.842.842 0 0 0 0 1.683Z" fill="#fff"/></svg>