<svg width="48" height="56" fill="none" xmlns="http://www.w3.org/2000/svg"><path d="M26.52 54.53a5 5 0 0 1-5.04 0l-19-11.083A5 5 0 0 1 0 39.128V5a5 5 0 0 1 5-5h38a5 5 0 0 1 5 5v34.128a5 5 0 0 1-2.48 4.319l-19 11.083Z" fill="#13D6C3"/><path d="M29.783 22.822a1.668 1.668 0 1 0-2.36 2.358 1.668 1.668 0 0 0 2.36-2.358ZM30.962 19.287a1.669 1.669 0 0 1 2.74.526 1.667 1.667 0 1 1-2.74-.526ZM36.853 22.822a1.667 1.667 0 1 0-2.397 2.316 1.667 1.667 0 0 0 2.397-2.316ZM30.962 26.357a1.667 1.667 0 1 1 2.356 2.358 1.667 1.667 0 0 1-2.356-2.358ZM14 25.667h-3.334v-3.334H14V19h3.333v3.333h3.334v3.334h-3.334V29H14v-3.333Z" fill="#fff"/><path fill-rule="evenodd" clip-rule="evenodd" d="M15.667 12.334a11.667 11.667 0 0 0 0 23.333h16.666a11.667 11.667 0 1 0 0-23.334H15.667Zm16.666 3.333H15.667a8.333 8.333 0 1 0 0 16.666h16.666a8.333 8.333 0 1 0 0-16.666Z" fill="#fff"/></svg>