<svg width="140" height="24" fill="none" xmlns="http://www.w3.org/2000/svg"><path d="M38.315 12.917V18.8h-3.074V2.761h5.448c.868 0 1.652.129 2.353.386.7.25 1.294.602 1.783 1.057.496.448.875.988 1.138 1.62.27.63.405 1.332.405 2.103 0 .72-.135 1.385-.405 1.994a4.53 4.53 0 0 1-1.138 1.586c-.489.44-1.083.786-1.783 1.036s-1.485.374-2.353.374h-2.374Zm0-2.511h2.374c.438 0 .817-.066 1.138-.199.321-.132.587-.312.799-.54.219-.227.38-.488.481-.781.11-.301.164-.614.164-.937a3.24 3.24 0 0 0-.164-1.046 2.268 2.268 0 0 0-.481-.848 2.212 2.212 0 0 0-.799-.573c-.32-.14-.7-.21-1.138-.21h-2.374v5.134ZM49.245 1.88h6.62v14.43h3.391v2.49h-10.01v-2.49h3.544V4.38h-3.545v-2.5ZM69.464 18.8a2.727 2.727 0 0 1-.186-.507 6.804 6.804 0 0 1-.131-.606 3.994 3.994 0 0 1-.58.518 4.192 4.192 0 0 1-.733.43c-.263.117-.555.208-.876.275-.32.073-.667.11-1.039.11a5.101 5.101 0 0 1-1.674-.265 3.969 3.969 0 0 1-1.302-.738 3.375 3.375 0 0 1-.853-1.123 3.363 3.363 0 0 1-.307-1.432c0-1.256.464-2.225 1.39-2.908.933-.69 2.323-1.036 4.168-1.036h1.696v-.705c0-.572-.186-1.024-.558-1.355-.372-.337-.908-.506-1.608-.506-.62 0-1.072.136-1.357.407-.284.265-.426.62-.426 1.069h-3.042c0-.507.11-.988.328-1.443.226-.456.55-.856.974-1.2.43-.346.952-.618 1.564-.816.62-.206 1.328-.308 2.123-.308.715 0 1.379.088 1.991.264a4.77 4.77 0 0 1 1.609.782 3.58 3.58 0 0 1 1.06 1.31c.256.522.384 1.128.384 1.818v5.111c0 .64.04 1.168.12 1.587.08.418.197.778.35 1.08v.186h-3.085Zm-2.9-2.149c.307 0 .591-.036.854-.11.262-.073.5-.169.711-.286.212-.118.394-.25.547-.397.153-.154.274-.308.361-.462v-2.05h-1.553c-.474 0-.88.049-1.215.144-.335.088-.609.217-.82.386-.212.161-.369.36-.47.594a1.81 1.81 0 0 0-.154.75c0 .41.142.752.427 1.024.291.272.73.407 1.313.407ZM80.569 13.799l.35 1.277 3.151-8.195h3.359l-6.007 13.703a8.646 8.646 0 0 1-.514.98 4.45 4.45 0 0 1-.777.98 4.076 4.076 0 0 1-1.148.76c-.445.206-.974.31-1.587.31a3.45 3.45 0 0 1-.405-.023 2.853 2.853 0 0 1-.36-.044 2.932 2.932 0 0 1-.35-.066 5.053 5.053 0 0 1-.362-.088l.372-2.335c.124 0 .28.003.47.01.197.015.354.023.471.023.24 0 .452-.074.635-.22.19-.147.35-.31.48-.485.132-.177.238-.338.318-.485.08-.147.135-.22.164-.22l.733-1.388-5.01-11.412h3.325l2.692 6.918ZM99.387 18.8h-3.041v-6.951h-4.508v6.95h-3.052V2.761h3.052v6.576h4.508V2.761h3.041V18.8ZM114.037 5.284h-4.912v13.515h-3.086V5.284h-4.846V2.76h12.844v2.523ZM119.562 2.761l1.51 6.026 1.718-6.026h3.818V18.8h-2.822v-4.747l.131-7.502-2.09 6.962h-1.521l-1.871-6.664.132 7.204v4.747h-2.823V2.761h3.818ZM132.538 16.299H140v2.5h-10.547V2.761h3.085V16.3Z" fill="#000"/><path d="m17.842 11.741-.744.276.744.264 5.996 2.016v2.985l-9.683-4.043v-2.478l9.683-4.043v2.974l-5.996 2.05Z" fill="#FF4B33"/><path d="m5.996 12.259.744-.276-.744-.264L0 9.703V6.718l9.683 4.043v2.478L0 17.282v-2.974l5.996-2.05Z" fill="#141414"/><path d="m11.662 6.036.273.75.263-.75L14.2 0h2.965L13.15 9.749h-2.462L6.673 0h2.954l2.035 6.036Z" fill="#13D6C3"/><path d="m12.176 17.964-.274-.75-.262.75L9.638 24H6.673l4.015-9.748h2.462L17.165 24h-2.954l-2.035-6.036Z" fill="#FFB500"/></svg>