<svg width="24" height="24" fill="none" xmlns="http://www.w3.org/2000/svg"><rect width="24" height="24" rx="5" fill="#141414"/><path fill-rule="evenodd" clip-rule="evenodd" d="M11.811 17.447h1.078s.331-.038.492-.218c.151-.16.151-.473.151-.473s-.019-1.456.653-1.664c.662-.208 1.522 1.4 2.42 2.024.681.473 1.201.368 1.201.368l2.421-.037s1.267-.076.662-1.069c-.047-.085-.35-.738-1.797-2.08-1.513-1.41-1.314-1.182.511-3.613 1.116-1.484 1.56-2.392 1.418-2.78-.132-.369-.955-.274-.955-.274l-2.723.019s-.199-.028-.35.066c-.142.085-.236.293-.236.293s-.435 1.144-1.003 2.128c-1.21 2.061-1.702 2.165-1.9 2.043-.464-.303-.35-1.201-.35-1.835 0-1.995.302-2.827-.587-3.045-.293-.076-.51-.123-1.267-.123-.974-.01-1.796 0-2.26.227-.312.151-.548.492-.406.51.18.03.586.114.803.407.284.379.265 1.23.265 1.23s.16 2.345-.378 2.638c-.369.198-.87-.208-1.948-2.08-.558-.956-.974-2.015-.974-2.015s-.085-.198-.227-.302c-.17-.133-.416-.17-.416-.17l-2.591.018s-.388.01-.53.18c-.123.151-.01.463-.01.463s2.025 4.738 4.322 7.13c2.119 2.175 4.511 2.034 4.511 2.034Z" fill="#fff"/></svg>