<svg width="24" height="24" fill="none" xmlns="http://www.w3.org/2000/svg"><rect width="24" height="24" rx="5" fill="#141414"/><path d="M19.414 8.52c-.19-.803-.842-1.4-1.636-1.484-1.882-.208-3.773-.208-5.665-.208-1.89 0-3.792 0-5.664.208-.794.085-1.447.68-1.636 1.484-.265 1.145-.265 2.402-.265 3.575 0 1.182 0 2.43.265 3.574.19.804.842 1.4 1.636 1.485 1.872.208 3.773.208 5.664.208 1.892 0 3.792 0 5.665-.208.794-.085 1.447-.681 1.636-1.485.264-1.144.264-2.402.264-3.574 0-1.173 0-2.43-.264-3.575Zm-8.899 5.646V9.967l4 2.1-4 2.099Z" fill="#fff"/></svg>